<svg width="96px" height="84px" viewBox="0 0 96 84" version="1.1" xmlns="http://www.w3.org/2000/svg" xmlns:xlink="http://www.w3.org/1999/xlink" xmlns:sketch="http://www.bohemiancoding.com/sketch/ns"><title>Shape</title><desc>Created with Sketch.</desc><defs></defs><g id="Page-1" stroke="none" stroke-width="1" fill="none" fill-rule="evenodd" sketch:type="MSPage"><g id="smoke" sketch:type="MSLayerGroup" transform="translate(-2.000000, 0.000000)" fill="#717F8E" fill-opacity=".5"><path d="M95.117,29.243 C97.344,27.148 97.949,23.727 96.388,20.943 C94.552,17.664 90.386,16.49 87.105,18.329 L86.942,18.42 C85.658,17.878 84.293,17.539 82.895,17.417 C83.716,14.407 83.501,11.099 82.026,8.082 C78.8,1.481 70.802,-1.263 64.202,1.962 C62.176,2.953 60.464,4.417 59.187,6.217 C54.886,2.788 48.852,2.013 43.736,4.512 C36.756,7.924 33.731,16.227 36.765,23.289 C34.461,24.777 32.927,27.152 32.445,29.772 C32.317,29.935 32.175,30.084 32.056,30.253 C27.755,26.823 21.72,26.048 16.604,28.548 C9.626,31.96 6.6,40.263 9.634,47.326 C6.615,49.274 4.907,52.743 5.171,56.297 C2.832,58.262 2.032,61.644 3.434,64.51 C3.82,65.301 4.343,65.976 4.955,66.534 C3.606,71.46 5.152,76.941 9.347,80.379 C15.031,85.035 23.446,84.196 28.1,78.515 C29.53,76.769 30.475,74.725 30.886,72.556 C34.082,73.35 37.446,73.011 40.408,71.671 C43.547,72.414 46.958,72.044 49.986,70.346 C51.954,69.244 53.58,67.687 54.753,65.816 C59.239,69 65.309,69.432 70.275,66.651 C73.293,64.956 75.467,62.338 76.655,59.349 C79.565,59.654 82.574,59.098 85.261,57.59 C91.673,53.996 94.297,46.234 91.66,39.58 C93.289,37.766 94.366,35.546 94.824,33.185 C95.184,31.921 95.293,30.579 95.117,29.243 L95.117,29.243 Z" id="Shape" sketch:type="MSShapeGroup"></path></g></g></svg>