<svg width="80px" height="75px" viewBox="0 0 80 75" version="1.1" xmlns="http://www.w3.org/2000/svg" xmlns:xlink="http://www.w3.org/1999/xlink" xmlns:sketch="http://www.bohemiancoding.com/sketch/ns"><title>warning</title><desc>Created with Sketch.</desc><defs></defs><g id="Page-1" stroke="none" stroke-width="1" fill="none" fill-rule="evenodd" sketch:type="MSPage"><g id="Artboard" sketch:type="MSArtboardGroup" fill="#D3746B"><g id="warning" sketch:type="MSLayerGroup"><path d="M35.59,2.789 L1.406,64.359 C-1.438,69.543 -0.23,74.5 7.457,74.5 L72.539,74.5 C80.244,74.5 81.435,69.543 78.59,64.359 L43.699,2.953 C42.992,1.57 41.965,0.042 39.785,0.062 C37.467,0.104 36.316,1.406 35.59,2.789 L35.59,2.789 Z M35.5,22.5 L43.5,22.5 L43.5,50.5 L35.5,50.5 L35.5,22.5 L35.5,22.5 Z M35.5,56.5 L43.5,56.5 L43.5,64.5 L35.5,64.5 L35.5,56.5 L35.5,56.5 Z" id="Shape" sketch:type="MSShapeGroup"></path></g></g></g></svg>