<svg width="89px" height="100px" viewBox="0 0 89 100" version="1.1" xmlns="http://www.w3.org/2000/svg" xmlns:xlink="http://www.w3.org/1999/xlink" xmlns:sketch="http://www.bohemiancoding.com/sketch/ns"><title>Shape</title><desc>Created with Sketch.</desc><defs></defs><g id="Page-1" stroke="none" stroke-width="1" fill="none" fill-rule="evenodd" sketch:type="MSPage"><g id="Artboard" sketch:type="MSArtboardGroup" fill="#B5B9BB"><path d="M36.786,50.287 L40.741,56.128 L48.106,56.128 L51.504,50.287 L47.924,44.067 L40.545,44.067 L36.786,50.287 L36.786,50.287 Z M39.819,97.261 L39.819,84.054 L32.44,88.204 L28.681,86.052 L28.681,81.399 L39.624,75.179 L39.624,66.499 L31.685,71.601 L31.685,62.405 L24.096,66.779 L24.096,79.247 L19.945,81.819 L16.437,79.498 L16.437,71.142 L4.919,77.64 L0,75.57 L0,70.3 L12.089,63.691 L4.528,59.89 L4.528,55.068 L8.819,52.719 L19.664,59.105 L27.197,54.759 L27.015,54.62 L19.314,50.203 L26.791,45.563 L19.286,41.217 L8.442,47.589 L4.374,45.563 L4.374,40.755 L11.713,36.632 L0,30.272 L0,25.003 L4.5,22.684 L16.044,29.35 L16.044,20.853 L19.524,18.505 L23.788,20.965 L23.76,33.683 L31.516,38.113 L31.489,29.127 L39.623,33.502 L39.623,24.822 L28.68,18.589 L28.68,13.977 L32.439,11.797 L39.818,15.948 L39.818,2.768 L44.04,0 L48.301,2.768 L48.301,15.948 L55.947,11.713 L59.792,14.257 L59.792,18.408 L48.47,24.822 L48.47,33.502 L56.214,28.778 L56.214,38.226 L64.193,33.878 L64.193,20.28 L68.037,18.491 L72.075,20.28 L72.075,28.974 L83.954,22.558 L88.107,25.088 L88.107,30.007 L76.506,36.604 L83.76,40.67 L83.76,45.367 L80,47.45 L68.862,40.867 L61.16,45.759 L68.609,50.401 L60.936,54.817 L68.862,58.967 L80,52.746 L83.578,55.276 L83.578,59.763 L76.59,63.69 L87.716,70.3 L87.716,75.488 L83.006,77.64 L72.075,71.419 L72.075,79.651 L68.148,81.845 L64.305,79.651 L64.305,67.155 L56.213,62.544 L56.213,71.224 L48.469,66.499 L48.469,75.179 L59.413,81.399 L59.413,86.319 L55.637,88.205 L48.3,84.055 L48.3,97.262 L44.04,100 L39.819,97.261 L39.819,97.261 Z" id="Shape" sketch:type="MSShapeGroup"></path></g></g></svg>